<?xml version="1.0" encoding="UTF-8"?>
<svg xmlns="http://www.w3.org/2000/svg" onmouseup="{ if(window.parent.document.onmouseup) window.parent.document.onmouseup(arguments[0]);}" viewBox="0 0 36 36" height="128" width="128" xmlns:xlink="http://www.w3.org/1999/xlink"><defs><circle data-cppathid="10000" r="16" cy="18" cx="18" id="static-actions-b"/><filter filterUnits="objectBoundingBox" y="-9.4%" x="-9.4%" height="118.8%" width="118.8%" id="static-actions-a"><feOffset result="shadowOffsetOuter1" in="SourceAlpha"/><feGaussianBlur stdDeviation="1" result="shadowBlurOuter1" in="shadowOffsetOuter1"/><feComposite result="shadowBlurOuter1" operator="out" in2="SourceAlpha" in="shadowBlurOuter1"/><feColorMatrix values="0 0 0 0 0   0 0 0 0 0   0 0 0 0 0  0 0 0 0.5 0" in="shadowBlurOuter1"/></filter></defs><g fill-rule="evenodd" fill="none"><rect data-cppathid="10001" opacity="0" fill="#03FF00" height="128" width="128"/><use xlink:href="#static-actions-b" filter="url(#static-actions-a)" fill="#000"/><circle data-cppathid="10002" stroke-width="2" stroke-linejoin="square" stroke="#FFF" fill="#000" r="15" cy="18" cx="18"/><path data-cppathid="10003" d="M17.823 9.169L11.423 15.569C11.3483624 15.640077 11.3249938 15.7496737 11.3641473 15.8450137 11.4033009 15.9403537 11.4969508 16.0018941 11.6 16L24.4 16C24.5012544 16.0001812 24.5926192 15.9392686 24.6313922 15.8457316 24.6701651 15.7521947 24.6486884 15.6445071 24.577 15.573L18.177 9.173C18.1306313 9.12544528 18.0672449 9.09829692 18.00083 9.09754647 17.934415 9.09679602 17.8704314 9.12250517 17.823 9.169zM17.823 26.831L11.423 20.431C11.3483624 20.359923 11.3249938 20.2503263 11.3641473 20.1549863 11.4033009 20.0596463 11.4969508 19.9981059 11.6 20L24.4 20C24.5012544 19.9998188 24.5926192 20.0607314 24.6313922 20.1542684 24.6701651 20.2478053 24.6486884 20.3554929 24.577 20.427L18.177 26.827C18.1306313 26.8745547 18.0672449 26.9017031 18.00083 26.9024535 17.934415 26.903204 17.8704314 26.8774948 17.823 26.831z" fill-rule="nonzero" fill="#FFF"/></g></svg>